<svg xmlns="http://www.w3.org/2000/svg" fill="#89919c" version="1.1" xmlns:xlink="http://www.w3.org/1999/xlink" width="30" height="30" x="0" y="0" viewBox="0 0 512 512" style="enable-background:new 0 0 512 512" xml:space="preserve" class=""><g><path d="M66.398 417.813a66.751 66.751 0 0 0-3.199-.079H15c-8.285 0-15 6.715-15 15v16.067C0 483.76 28.3 512 63.2 512h5.78a44.817 44.817 0 0 1-2.582-15zM281.164 138.824c22.149 0 40.168-18.02 40.168-40.168L321.328 0h-10.93C272.008 0 241 31.066 241 69.398v29.258c0 22.149 18.02 40.168 40.164 40.168zm0 0" fill="#89919c" opacity="1" data-original="#000000" class=""></path><path d="M497 48.2h-58.055L395.141 4.394A14.989 14.989 0 0 0 384.53 0h-33.203l.004 98.652c0 38.696-31.477 70.172-70.168 70.172-20.437 0-38.863-8.793-51.7-22.785-7.667 15.863-18.976 29.957-33.394 41.172-9.297 7.226-19.113 14.86-28.754 22.36-21.246 16.527-70.918 64.28-70.918 145.003V497c0 8.285 6.72 15 15 15H289.2v-15c0-27.164-22.101-49.266-49.265-49.266-8.286 0-15-6.718-15-15v-16.086c0-27.625-22.5-49.25-49.25-49.25-8.286 0-15.008-6.714-15.008-15 0-8.28 6.707-15 14.988-15 44.3 0 79.27 35.95 79.27 79.25v2.508a78.661 78.661 0 0 1 18.199 5.89V368.47c0-8.285 6.715-15 15-15s15 6.715 15 15V448.8c0 .133-.016.262-.02.394C313.2 462.496 319.2 479.06 319.2 497v15h65.332c8.285 0 15-6.715 15-15v-32.133c0-20.75-13.472-38.406-32.133-44.687v-44.012c30.325-23.254 48.2-59.219 48.2-97.766v-119.87h33.199c34.851 0 63.2-28.352 63.2-63.2V63.199c.003-8.285-6.712-15-14.997-15zm0 0" fill="#89919c" opacity="1" data-original="#000000" class=""></path></g></svg>